<?xml version="1.0" encoding="UTF-8" standalone="no"?>
<!DOCTYPE svg PUBLIC "-//W3C//DTD SVG 1.1//EN"
 "http://www.w3.org/Graphics/SVG/1.1/DTD/svg11.dtd">
<!-- Generated by graphviz version 2.43.0 (0)
 -->
<!-- Title: include/MyLibrary/subclass&#45;example.hpp Pages: 1 -->
<svg width="201pt" height="148pt"
 viewBox="0.00 0.00 200.50 148.00" xmlns="http://www.w3.org/2000/svg" xmlns:xlink="http://www.w3.org/1999/xlink">
<g id="graph0" class="graph" transform="scale(1 1) rotate(0) translate(4 144)">
<title>include/MyLibrary/subclass&#45;example.hpp</title>
<!-- Node1 -->
<g id="Node000001" class="node">
<title>Node1</title>
<g id="a_Node000001"><a xlink:title=" ">
<polygon fill="#999999" stroke="#666666" points="149,-140 0,-140 0,-110 149,-110 149,-140"/>
<text text-anchor="start" x="8" y="-128" font-family="Helvetica,sans-Serif" font-size="10.00">include/MyLibrary/subclass</text>
<text text-anchor="middle" x="74.5" y="-117" font-family="Helvetica,sans-Serif" font-size="10.00">&#45;example.hpp</text>
</a>
</g>
</g>
<!-- Node2 -->
<g id="Node000002" class="node">
<title>Node2</title>
<g id="a_Node000002"><a xlink:title=" ">
<polygon fill="#e0e0e0" stroke="#999999" points="62.5,-19 18.5,-19 18.5,0 62.5,0 62.5,-19"/>
<text text-anchor="middle" x="40.5" y="-7" font-family="Helvetica,sans-Serif" font-size="10.00">string</text>
</a>
</g>
</g>
<!-- Node1&#45;&gt;Node2 -->
<g id="edge1_Node000001_Node000002" class="edge">
<title>Node1&#45;&gt;Node2</title>
<g id="a_edge1_Node000001_Node000002"><a xlink:title=" ">
<path fill="none" stroke="#63b8ff" d="M54.41,-109.8C43.63,-100.9 31.38,-88.4 25.5,-74 19.49,-59.27 24.59,-41.59 30.42,-28.63"/>
<polygon fill="#63b8ff" stroke="#63b8ff" points="33.69,-29.9 35.05,-19.39 27.44,-26.76 33.69,-29.9"/>
</a>
</g>
</g>
<!-- Node3 -->
<g id="Node000003" class="node">
<title>Node3</title>
<g id="a_Node000003"><a xlink:href="example_8hpp.html" target="_top" xlink:title=" ">
<polygon fill="white" stroke="#666666" points="114.5,-74 34.5,-74 34.5,-55 114.5,-55 114.5,-74"/>
<text text-anchor="middle" x="74.5" y="-62" font-family="Helvetica,sans-Serif" font-size="10.00">example.hpp</text>
</a>
</g>
</g>
<!-- Node1&#45;&gt;Node3 -->
<g id="edge2_Node000001_Node000003" class="edge">
<title>Node1&#45;&gt;Node3</title>
<g id="a_edge2_Node000001_Node000003"><a xlink:title=" ">
<path fill="none" stroke="#63b8ff" d="M74.5,-109.84C74.5,-102.21 74.5,-92.7 74.5,-84.45"/>
<polygon fill="#63b8ff" stroke="#63b8ff" points="78,-84.27 74.5,-74.27 71,-84.27 78,-84.27"/>
</a>
</g>
</g>
<!-- Node4 -->
<g id="Node000004" class="node">
<title>Node4</title>
<g id="a_Node000004"><a xlink:title=" ">
<polygon fill="#e0e0e0" stroke="#999999" points="192.5,-74 132.5,-74 132.5,-55 192.5,-55 192.5,-74"/>
<text text-anchor="middle" x="162.5" y="-62" font-family="Helvetica,sans-Serif" font-size="10.00">iostream</text>
</a>
</g>
</g>
<!-- Node1&#45;&gt;Node4 -->
<g id="edge4_Node000001_Node000004" class="edge">
<title>Node1&#45;&gt;Node4</title>
<g id="a_edge4_Node000001_Node000004"><a xlink:title=" ">
<path fill="none" stroke="#63b8ff" d="M95.8,-109.84C109.57,-100.68 127.43,-88.82 141.2,-79.66"/>
<polygon fill="#63b8ff" stroke="#63b8ff" points="143.18,-82.55 149.57,-74.09 139.31,-76.72 143.18,-82.55"/>
</a>
</g>
</g>
<!-- Node3&#45;&gt;Node2 -->
<g id="edge3_Node000003_Node000002" class="edge">
<title>Node3&#45;&gt;Node2</title>
<g id="a_edge3_Node000003_Node000002"><a xlink:title=" ">
<path fill="none" stroke="#63b8ff" d="M68.89,-54.75C64.18,-47.42 57.33,-36.73 51.53,-27.7"/>
<polygon fill="#63b8ff" stroke="#63b8ff" points="54.36,-25.62 46.01,-19.09 48.46,-29.4 54.36,-25.62"/>
</a>
</g>
</g>
</g>
</svg>
