<?xml version="1.0" encoding="UTF-8" standalone="no"?>
<!DOCTYPE svg PUBLIC "-//W3C//DTD SVG 1.1//EN"
 "http://www.w3.org/Graphics/SVG/1.1/DTD/svg11.dtd">
<!-- Generated by graphviz version 13.1.0 (20250701.0955)
 -->
<!-- Title: include/MyLibrary/subclass&#45;example.hpp Pages: 1 -->
<svg width="183pt" height="152pt"
 viewBox="0.00 0.00 183.00 152.00" xmlns="http://www.w3.org/2000/svg" xmlns:xlink="http://www.w3.org/1999/xlink">
<g id="graph0" class="graph" transform="scale(1 1) rotate(0) translate(4 148)">
<title>include/MyLibrary/subclass&#45;example.hpp</title>
<!-- Node1 -->
<g id="Node000001" class="node">
<title>Node1</title>
<g id="a_Node000001"><a xlink:title=" ">
<polygon fill="#999999" stroke="#666666" points="134.5,-144 0,-144 0,-112 134.5,-112 134.5,-144"/>
<text xml:space="preserve" text-anchor="start" x="8" y="-130.5" font-family="Helvetica,sans-Serif" font-size="10.00">include/MyLibrary/subclass</text>
<text xml:space="preserve" text-anchor="middle" x="67.25" y="-118.5" font-family="Helvetica,sans-Serif" font-size="10.00">&#45;example.hpp</text>
</a>
</g>
</g>
<!-- Node2 -->
<g id="Node000002" class="node">
<title>Node2</title>
<g id="a_Node000002"><a xlink:title=" ">
<polygon fill="#e0e0e0" stroke="#999999" points="55.25,-20 15.25,-20 15.25,0 55.25,0 55.25,-20"/>
<text xml:space="preserve" text-anchor="middle" x="35.25" y="-6.5" font-family="Helvetica,sans-Serif" font-size="10.00">string</text>
</a>
</g>
</g>
<!-- Node1&#45;&gt;Node2 -->
<g id="edge1_Node000001_Node000002" class="edge">
<title>Node1&#45;&gt;Node2</title>
<g id="a_edge1_Node000001_Node000002"><a xlink:title=" ">
<path fill="none" stroke="#63b8ff" d="M48.29,-111.67C38.5,-102.49 27.51,-89.92 22.25,-76 16.65,-61.18 20.83,-43.5 25.89,-30.32"/>
<polygon fill="#63b8ff" stroke="#63b8ff" points="28.96,-32.04 29.74,-21.48 22.54,-29.25 28.96,-32.04"/>
</a>
</g>
</g>
<!-- Node3 -->
<g id="Node000003" class="node">
<title>Node3</title>
<g id="a_Node000003"><a xlink:href="example_8hpp.html" target="_top" xlink:title=" ">
<polygon fill="white" stroke="#666666" points="103,-76 31.5,-76 31.5,-56 103,-56 103,-76"/>
<text xml:space="preserve" text-anchor="middle" x="67.25" y="-62.5" font-family="Helvetica,sans-Serif" font-size="10.00">example.hpp</text>
</a>
</g>
</g>
<!-- Node1&#45;&gt;Node3 -->
<g id="edge2_Node000001_Node000003" class="edge">
<title>Node1&#45;&gt;Node3</title>
<g id="a_edge2_Node000001_Node000003"><a xlink:title=" ">
<path fill="none" stroke="#63b8ff" d="M67.25,-111.55C67.25,-104.34 67.25,-95.66 67.25,-87.88"/>
<polygon fill="#63b8ff" stroke="#63b8ff" points="70.75,-87.92 67.25,-77.92 63.75,-87.92 70.75,-87.92"/>
</a>
</g>
</g>
<!-- Node4 -->
<g id="Node000004" class="node">
<title>Node4</title>
<g id="a_Node000004"><a xlink:title=" ">
<polygon fill="#e0e0e0" stroke="#999999" points="175,-76 121.5,-76 121.5,-56 175,-56 175,-76"/>
<text xml:space="preserve" text-anchor="middle" x="148.25" y="-62.5" font-family="Helvetica,sans-Serif" font-size="10.00">iostream</text>
</a>
</g>
</g>
<!-- Node1&#45;&gt;Node4 -->
<g id="edge4_Node000001_Node000004" class="edge">
<title>Node1&#45;&gt;Node4</title>
<g id="a_edge4_Node000001_Node000004"><a xlink:title=" ">
<path fill="none" stroke="#63b8ff" d="M88.11,-111.55C99.83,-102.87 114.44,-92.04 126.33,-83.24"/>
<polygon fill="#63b8ff" stroke="#63b8ff" points="128.38,-86.07 134.33,-77.31 124.21,-80.45 128.38,-86.07"/>
</a>
</g>
</g>
<!-- Node3&#45;&gt;Node2 -->
<g id="edge3_Node000003_Node000002" class="edge">
<title>Node3&#45;&gt;Node2</title>
<g id="a_edge3_Node000003_Node000002"><a xlink:title=" ">
<path fill="none" stroke="#63b8ff" d="M61.68,-55.59C57.5,-48.55 51.65,-38.67 46.51,-30"/>
<polygon fill="#63b8ff" stroke="#63b8ff" points="49.64,-28.42 41.53,-21.6 43.62,-31.99 49.64,-28.42"/>
</a>
</g>
</g>
</g>
</svg>
